<svg xmlns="http://www.w3.org/2000/svg" viewBox="0 0 48 48">
  <rect width="48" height="48" rx="9" fill="#011b33"/>
  <!-- g and s from the globalstack wordmark, scaled and positioned side by side -->
  <g transform="translate(1.5, 3.5) scale(0.5)">
    <!-- g: original coords x:0-44, y:0-82 -->
    <path fill="#ffffff" d="M23.54,71.24c3.29,0,5.83-.88,7.63-2.65,1.79-1.76,2.69-4.12,2.69-7.05v-5.03c-1,1.59-2.6,2.9-4.81,3.92s-4.66,1.54-7.36,1.54c-6.06,0-11.19-2.03-15.39-6.08C2.1,51.85,0,46.5,0,39.85s2.09-11.95,6.26-16.09c4.17-4.14,9.14-6.22,14.9-6.22,2.82,0,5.36.54,7.63,1.63,2.26,1.09,3.95,2.51,5.07,4.28v-2.73c0-.53.19-.97.57-1.32.38-.35.81-.53,1.28-.53h8.91c.53,0,.97.18,1.32.53.35.35.53.79.53,1.32v41.27c0,6.05-2.09,10.93-6.26,14.64-4.17,3.7-9.85,5.55-17.02,5.55-5.64,0-10.45-1.19-14.42-3.57-3.97-2.38-6.45-5.57-7.45-9.57-.24-1,.06-1.62.88-1.85l9.26-2.65c1.06-.18,1.79.12,2.2.88.59,1.59,1.7,2.95,3.35,4.1,1.65,1.15,3.82,1.72,6.53,1.72ZM12.87,39.85c0,3.06,1,5.6,3,7.63,2,2.03,4.47,3.04,7.41,3.04s5.5-1.01,7.5-3.04c2-2.03,3-4.57,3-7.63s-1-5.52-3-7.58c-2-2.06-4.5-3.09-7.5-3.09s-5.41,1.03-7.41,3.09c-2,2.06-3,4.58-3,7.58Z"/>
    <!-- s: shifted left by 221 so it sits at x≈50-88 (next to g which ends at ≈44) -->
    <g transform="translate(-221, 0)">
      <path fill="#ffffff" d="M289.11,17.55c3.88,0,7.3.54,10.27,1.63,2.97,1.09,5.25,2.37,6.83,3.83,1.41,1.12,1.47,2.41.18,3.88l-3.26,3.7c-1.06,1.23-2.47,1.32-4.23.26-3.47-2.29-6.73-3.44-9.79-3.44-1.65,0-2.98.31-4.01.93-1.03.62-1.54,1.37-1.54,2.25,0,1.71,1.64,2.88,4.94,3.53l6.79,1.32c8.88,1.71,13.31,6.03,13.31,12.96,0,4.23-1.79,7.71-5.38,10.45-3.59,2.73-8.26,4.1-14.02,4.1-6.35,0-11.79-1.59-16.31-4.76-3.65-2.53-4.26-4.73-1.85-6.61l3.88-3c1.41-1.06,2.85-.97,4.32.26,3.29,2.88,6.76,4.32,10.4,4.32,1.88,0,3.33-.35,4.36-1.06,1.03-.71,1.54-1.56,1.54-2.56s-.48-1.78-1.46-2.34c-.97-.56-2.54-1.04-4.72-1.46l-7.05-1.5c-3.59-.71-6.42-2.14-8.51-4.32-2.09-2.17-3.13-4.97-3.13-8.38,0-4,1.68-7.33,5.03-10.01s7.82-4.01,13.4-4.01Z"/>
    </g>
  </g>
</svg>
